<svg id="visual" viewBox="0 0 900 600" width="900" height="600" xmlns="http://www.w3.org/2000/svg" xmlns:xlink="http://www.w3.org/1999/xlink" version="1.1"><rect x="0" y="0" width="900" height="600" fill="#fff"></rect><defs><linearGradient id="grad1_0" x1="33.3%" y1="100%" x2="100%" y2="0%"><stop offset="20%" stop-color="#ffffff" stop-opacity="1"></stop><stop offset="80%" stop-color="#ffffff" stop-opacity="1"></stop></linearGradient></defs><defs><linearGradient id="grad2_0" x1="0%" y1="100%" x2="66.7%" y2="0%"><stop offset="20%" stop-color="#ffffff" stop-opacity="1"></stop><stop offset="80%" stop-color="#ffffff" stop-opacity="1"></stop></linearGradient></defs><g transform="translate(900, 600)"><path d="M-486.7 0C-465 -57.4 -443.3 -114.9 -423.1 -175.3C-403 -235.7 -384.4 -299 -344.2 -344.2C-303.9 -389.3 -242 -416.3 -181 -437C-120 -457.7 -60 -472.2 0 -486.7L0 0Z" fill="#4796bc"></path></g><g transform="translate(0, 0)"><path d="M486.7 0C443.7 46.7 400.7 93.3 385.3 159.6C369.8 225.9 381.9 311.7 344.2 344.2C306.5 376.6 219.1 355.6 153.5 370.5C87.8 385.3 43.9 436 0 486.7L0 0Z" fill="#4796bc"></path></g></svg>