<svg id="visual" viewBox="0 0 900 600" width="900" height="600" xmlns="http://www.w3.org/2000/svg" xmlns:xlink="http://www.w3.org/1999/xlink" version="1.1"><path d="M0 358L21.5 359C43 360 86 362 128.8 373.3C171.7 384.7 214.3 405.3 257.2 419C300 432.7 343 439.3 385.8 441.3C428.7 443.3 471.3 440.7 514.2 428C557 415.3 600 392.7 642.8 383.5C685.7 374.3 728.3 378.7 771.2 388.5C814 398.3 857 413.7 878.5 421.3L900 429L900 601L878.5 601C857 601 814 601 771.2 601C728.3 601 685.7 601 642.8 601C600 601 557 601 514.2 601C471.3 601 428.7 601 385.8 601C343 601 300 601 257.2 601C214.3 601 171.7 601 128.8 601C86 601 43 601 21.5 601L0 601Z" fill="#4796bc"></path><path d="M0 492L21.5 485.5C43 479 86 466 128.8 463.2C171.7 460.3 214.3 467.7 257.2 473C300 478.3 343 481.7 385.8 477.5C428.7 473.3 471.3 461.7 514.2 465.3C557 469 600 488 642.8 490.5C685.7 493 728.3 479 771.2 467.7C814 456.3 857 447.7 878.5 443.3L900 439L900 601L878.5 601C857 601 814 601 771.2 601C728.3 601 685.7 601 642.8 601C600 601 557 601 514.2 601C471.3 601 428.7 601 385.8 601C343 601 300 601 257.2 601C214.3 601 171.7 601 128.8 601C86 601 43 601 21.5 601L0 601Z" fill="#266c9f"></path><path d="M0 534L21.5 538C43 542 86 550 128.8 553.3C171.7 556.7 214.3 555.3 257.2 555.3C300 555.3 343 556.7 385.8 550.8C428.7 545 471.3 532 514.2 530.3C557 528.7 600 538.3 642.8 533.5C685.7 528.7 728.3 509.3 771.2 506.2C814 503 857 516 878.5 522.5L900 529L900 601L878.5 601C857 601 814 601 771.2 601C728.3 601 685.7 601 642.8 601C600 601 557 601 514.2 601C471.3 601 428.7 601 385.8 601C343 601 300 601 257.2 601C214.3 601 171.7 601 128.8 601C86 601 43 601 21.5 601L0 601Z" fill="#1b427d"></path></svg>